0
SECTION
2
HEADER
9
$ACADVER
1
AC1015
9
$INSUNITS
70
4
0
ENDSEC
0
SECTION
2
ENTITIES
0
LWPOLYLINE
5
1A
330
0
100
AcDbEntity
8
profile
100
AcDbPolyline
90
4
70
1
10
0.0
20
0.0
10
60.0
20
0.0
10
60.0
20
40.0
10
0.0
20
40.0
0
LWPOLYLINE
5
2A
330
0
100
AcDbEntity
8
pockets
100
AcDbPolyline
90
4
70
1
10
8.0
20
8.0
10
28.0
20
8.0
10
28.0
20
23.0
10
8.0
20
23.0
0
CIRCLE
5
3A
330
0
100
AcDbEntity
8
holes
10
50.0
20
20.0
40
3.0
0
LWPOLYLINE
5
4A
330
0
100
AcDbEntity
8
slots
100
AcDbPolyline
90
4
70
1
10
30.0
20
28.0
10
44.0
20
28.0
42
0.4142
10
44.0
20
34.0
10
30.0
20
34.0
42
0.4142
0
ENDSEC
0
EOF
